<?xml version="1.0" standalone="no"?>
<!DOCTYPE svg PUBLIC "-//W3C//DTD SVG 20010904//EN"
 "http://www.w3.org/TR/2001/REC-SVG-20010904/DTD/svg10.dtd">
<svg version="1.0" xmlns="http://www.w3.org/2000/svg"
 width="260.000000pt" height="260.000000pt" viewBox="0 0 260.000000 260.000000"
 preserveAspectRatio="xMidYMid meet">
<metadata>
Created by potrace 1.11, written by Peter Selinger 2001-2013
</metadata>
<g transform="translate(0.000000,260.000000) scale(0.100000,-0.100000)"
fill="#000000" stroke="none">
<path d="M1097 2383 l-182 -180 -253 0 c-139 0 -256 -3 -260 -7 -3 -4 -7 -122
-7 -262 l-1 -254 -183 -184 -183 -183 35 -39 c19 -22 94 -97 166 -169 119
-119 148 -155 122 -155 -6 0 -4 -10 2 -23 8 -16 12 -96 11 -267 -1 -238 0
-245 20 -256 15 -7 23 -7 28 0 5 8 8 7 8 0 0 -7 9 -14 20 -17 11 -3 18 -1 14
4 -3 5 -2 9 3 10 4 0 18 2 31 3 13 2 25 -1 28 -6 3 -5 0 -7 -7 -6 -6 2 -14 -4
-16 -12 -4 -12 -3 -12 5 -2 5 8 12 13 16 13 3 -1 7 -1 9 0 1 1 14 2 29 3 17 2
25 -1 21 -8 -3 -6 -3 -8 2 -4 4 4 15 2 23 -5 13 -10 14 -9 7 2 -6 11 -4 13 9
8 9 -4 15 -3 12 1 -3 5 2 9 10 9 9 0 13 -6 9 -15 -4 -12 -1 -11 20 2 22 15 29
14 27 -5 -1 -3 5 -6 12 -6 7 0 13 6 13 13 0 7 -5 10 -10 7 -6 -3 -7 -2 -4 4 4
6 19 8 34 6 16 -2 40 -5 55 -5 15 -1 25 -5 22 -9 -8 -14 36 0 72 22 l35 21
176 -176 c98 -98 184 -176 194 -176 13 0 17 -5 13 -18 -5 -14 -4 -14 4 -2 7 9
7 19 2 25 -6 8 0 19 20 33 16 13 31 18 35 12 4 -6 13 -5 24 2 16 10 17 13 5
26 -18 17 -9 32 19 32 17 0 19 -2 7 -9 -8 -6 -18 -7 -24 -4 -5 3 -6 1 -2 -5 8
-13 39 -1 51 18 4 6 11 7 17 4 7 -4 8 -2 4 5 -4 6 0 14 8 17 14 5 14 8 0 22
-15 14 -15 17 1 29 10 7 23 10 28 6 6 -4 8 0 4 10 -4 11 -1 17 9 17 8 0 13 4
10 8 -3 5 1 9 9 9 13 0 13 -2 0 -17 -13 -14 -12 -16 4 -16 10 0 18 7 17 15 -1
9 6 16 14 16 8 0 15 7 15 15 1 8 6 14 13 12 7 -1 11 1 11 5 -3 20 2 26 12 13
8 -12 9 -11 7 5 -2 11 2 19 8 18 6 -1 11 5 11 13 0 20 -3 18 -37 -19 -16 -17
-30 -26 -30 -19 0 7 7 15 15 18 8 4 12 11 8 18 -3 6 -3 8 2 4 4 -4 14 0 22 10
12 16 14 16 28 -2 14 -18 15 -19 15 -2 0 12 5 16 16 12 10 -4 13 -2 8 6 -5 8
-2 9 9 5 10 -3 17 -2 17 4 0 5 11 7 24 5 14 -2 27 0 30 5 2 5 3 4 1 -3 -1 -7
-8 -12 -14 -10 -7 1 -10 -2 -6 -8 4 -7 14 -5 28 5 19 13 23 13 41 -3 11 -9 16
-11 12 -4 -4 6 -2 13 3 13 42 5 58 4 70 -5 9 -7 17 -5 27 9 8 11 14 13 14 6 0
-7 6 -11 13 -8 6 2 20 0 29 -4 9 -5 19 -5 22 0 6 9 54 7 64 -3 3 -3 14 2 25
11 12 10 17 12 12 4 -5 -9 -3 -12 6 -9 8 3 21 2 29 -2 9 -5 23 -2 35 7 16 13
17 15 3 10 -20 -7 -25 9 -5 16 10 4 10 6 0 6 -7 1 -13 6 -13 12 0 5 4 8 9 4 5
-3 13 -1 16 5 4 6 1 9 -6 8 -7 -2 -14 6 -16 17 -1 11 0 14 3 8 3 -7 10 -13 16
-13 6 0 3 11 -5 24 -16 23 -20 109 -5 100 5 -3 8 2 8 11 0 9 -4 14 -9 11 -5
-4 -8 2 -6 11 1 10 -2 23 -7 30 -5 7 -5 13 0 17 5 3 8 17 7 31 -2 14 1 28 7
31 6 4 5 10 -3 15 -10 6 -11 9 -1 9 6 0 12 5 12 11 0 5 -4 8 -8 5 -4 -2 -8 6
-8 19 0 13 4 21 8 19 4 -3 8 0 8 5 0 6 -6 11 -12 12 -7 0 -4 4 7 9 18 8 18 9
2 9 -14 1 -16 5 -8 20 6 10 7 22 3 27 -4 5 2 2 12 -6 11 -8 17 -10 13 -3 -4 6
-1 18 8 26 13 13 13 16 0 21 -10 3 -15 -1 -16 -12 0 -11 -2 -12 -6 -4 -3 7 1
19 7 27 10 12 16 13 28 3 13 -11 14 -10 5 6 -13 24 33 75 51 55 8 -9 8 -10 -3
-4 -10 6 -12 4 -6 -5 6 -9 4 -11 -5 -5 -8 5 -11 4 -6 -3 8 -14 33 -5 40 14 3
8 2 13 -3 10 -5 -3 -12 1 -15 10 -3 8 -2 13 3 10 4 -3 13 6 19 19 7 14 17 25
23 25 7 0 4 -8 -6 -20 -15 -16 -16 -23 -6 -33 10 -9 11 -8 5 6 -3 10 -3 17 2
15 15 -4 55 22 49 33 -6 8 8 13 28 10 5 -1 6 3 3 8 -4 5 5 18 19 29 19 15 22
21 11 25 -17 7 -39 -16 -28 -28 4 -5 1 -5 -6 -1 -8 5 -11 2 -10 -6 2 -7 -3
-12 -9 -10 -12 2 -17 -10 -14 -31 2 -12 -17 -8 -22 6 -4 12 79 97 96 97 4 0 5
5 1 12 -4 7 -3 8 4 4 7 -4 12 -1 12 8 0 9 7 16 16 16 8 0 12 5 9 10 -4 6 -1 9
6 8 7 -2 13 2 14 9 0 7 9 18 19 26 18 13 13 20 -78 112 -53 54 -96 102 -96
107 0 4 -3 7 -7 6 -11 -3 -133 121 -133 134 0 6 -6 5 -16 -3 -9 -7 -23 -14
-31 -15 -12 -2 -11 2 4 18 18 20 18 21 -2 10 -20 -10 -20 -7 -20 149 0 151 2
164 28 160 5 -1 5 3 2 9 -4 6 -13 9 -19 7 -10 -4 -12 13 -10 66 3 91 -4 102
-57 106 -23 1 -46 4 -50 7 -4 2 -10 1 -12 -3 -3 -5 -96 -7 -206 -5 -186 3
-201 4 -192 20 8 14 -19 45 -148 172 -86 85 -167 164 -179 174 l-22 19 -183
-180z m188 96 c-3 -15 -1 -18 8 -11 8 6 53 -32 152 -132 77 -77 135 -137 129
-134 -5 4 -26 3 -45 -1 -19 -4 -45 -4 -57 0 -12 5 -24 4 -27 -2 -4 -5 -11 -7
-16 -3 -10 6 -50 7 -154 5 -132 -4 -272 5 -272 16 0 6 7 9 15 5 10 -3 13 -1 8
6 -4 7 -1 15 8 18 9 3 13 11 9 18 -3 6 -3 8 1 5 9 -9 63 43 57 55 -2 5 1 6 7
2 6 -3 16 3 22 14 6 11 16 17 22 14 8 -5 9 -1 4 12 -4 10 -4 16 -1 12 9 -8 62
45 57 57 -3 6 1 5 8 -2 14 -13 4 -37 -12 -27 -7 5 -8 2 -3 -6 6 -9 4 -11 -5
-5 -9 6 -11 4 -5 -5 6 -9 4 -11 -6 -5 -12 7 -12 6 -1 -6 11 -12 15 -11 23 4 6
9 15 15 20 11 5 -3 8 -2 7 3 -4 13 28 54 36 46 4 -4 4 0 0 10 -3 9 -11 17 -17
17 -6 0 -2 7 9 15 24 18 24 19 19 -6z m-31 -34 c-7 -16 -24 -21 -24 -6 0 8 7
13 27 20 1 1 0 -6 -3 -14z m-749 -298 c10 13 14 13 20 3 5 -9 4 -11 -3 -6 -7
4 -12 3 -12 -3 0 -5 9 -9 19 -8 11 0 18 4 15 8 -2 4 3 10 12 13 9 3 12 2 9 -5
-4 -6 3 -7 19 -3 18 4 26 2 26 -7 0 -8 5 -6 13 6 11 14 16 15 22 5 5 -9 4 -11
-3 -6 -7 4 -12 2 -12 -3 0 -14 13 -14 28 1 9 9 12 9 12 0 0 -9 6 -9 27 1 21 9
27 9 31 -1 3 -10 8 -8 17 5 10 14 13 14 12 3 -1 -8 2 -15 8 -15 5 0 9 7 7 15
-2 12 1 11 11 -2 8 -10 17 -14 21 -10 4 4 19 7 32 7 19 1 -14 -38 -173 -197
-109 -109 -202 -198 -207 -198 -6 0 -6 4 1 11 10 10 6 62 -6 55 -9 -6 -6 88 4
104 5 8 9 25 10 38 1 21 -1 22 -12 6 -11 -15 -12 -14 -10 5 1 11 7 21 15 21
10 0 10 4 -3 16 -15 15 -15 18 2 37 15 17 15 19 2 15 -12 -5 -15 1 -15 23 0
24 3 28 19 23 17 -5 18 -4 6 9 -8 8 -17 13 -21 10 -4 -2 -5 4 -1 13 4 11 8 13
11 6 6 -19 22 -14 16 6 -5 16 -4 16 7 0 12 -15 14 -15 24 -1z m701 1 c4 -7 3
-8 -4 -4 -7 4 -12 2 -12 -3 0 -12 13 -14 24 -4 4 4 18 9 32 11 19 2 24 -1 18
-10 -6 -10 -4 -10 9 1 10 7 17 9 17 3 0 -6 8 -9 18 -8 9 2 20 -2 24 -8 5 -8 8
-7 8 2 0 7 5 10 12 6 7 -4 8 -3 4 5 -4 6 -13 8 -19 5 -7 -4 -9 -3 -4 1 4 5 18
9 31 10 19 0 22 -2 14 -12 -13 -16 4 -17 20 -1 7 7 12 8 12 4 0 -5 8 -2 17 5
11 10 14 10 9 2 -4 -8 -2 -13 4 -13 6 0 8 -5 4 -12 -4 -7 -3 -8 4 -4 6 4 9 14
6 24 -5 14 -3 14 10 -2 9 -11 16 -15 16 -10 0 5 11 11 25 12 14 1 25 -3 25 -9
0 -5 5 -7 10 -4 6 4 7 11 4 17 -4 7 -2 8 5 4 6 -4 9 -12 6 -17 -4 -5 -1 -17 5
-26 10 -16 11 -16 6 -1 -7 23 30 15 63 -14 89 -80 454 -455 461 -474 5 -13 7
-31 3 -40 -5 -13 -2 -15 13 -10 18 6 19 -3 17 -282 -1 -158 -2 -293 -2 -300
-1 -6 -111 -122 -246 -257 l-246 -246 -335 2 c-296 1 -337 0 -353 -15 -26 -24
-44 -20 -80 19 -17 19 -37 35 -43 35 -6 0 -9 3 -6 6 7 6 -61 74 -75 74 -6 0
-8 2 -5 5 6 7 -222 235 -235 235 -6 0 -8 3 -5 6 3 3 -12 23 -34 45 -22 21 -37
39 -33 39 3 0 1 9 -5 20 -6 11 -7 20 -1 20 5 0 12 7 15 16 6 15 4 15 -11 3 -9
-8 -4 3 12 24 26 35 42 83 24 72 -4 -3 -10 2 -13 11 -3 8 -2 12 4 9 14 -9 12
8 -2 24 -11 12 -10 13 6 7 18 -6 19 -5 4 11 -16 19 -17 41 -4 82 5 14 4 21 -1
18 -5 -4 -10 0 -10 8 0 8 4 12 9 9 4 -3 8 0 8 5 0 6 -6 11 -12 12 -10 0 -10 2
0 6 6 2 9 10 6 15 -10 15 -11 107 -2 101 10 -5 10 11 1 20 -9 10 -10 57 -2 57
4 0 9 -6 12 -12 3 -7 4 -3 4 10 -1 12 -6 21 -12 18 -7 -2 -12 2 -12 10 0 8 6
13 12 10 6 -2 12 2 12 10 0 8 -6 13 -12 10 -6 -2 -12 2 -12 10 0 8 6 13 12 10
6 -2 12 2 12 10 0 9 -6 13 -15 9 -12 -4 -13 -3 -2 10 7 8 9 15 6 15 -4 0 4 12
18 26 22 25 25 54 5 54 -5 0 12 19 36 41 25 23 48 39 51 36 4 -3 -1 -13 -10
-22 -9 -9 -16 -13 -16 -9 0 5 -5 3 -11 -3 -8 -8 -8 -16 0 -30 10 -16 11 -15 5
7 -6 23 -6 24 11 10 11 -8 16 -10 13 -5 -7 12 17 37 27 27 4 -4 5 0 3 8 -2 8
3 14 10 12 8 -1 11 2 8 7 -4 5 2 14 11 20 15 8 16 12 4 23 -12 11 -13 11 -6
-1 6 -10 4 -12 -5 -6 -8 5 -11 4 -7 -2 4 -6 0 -16 -9 -23 -12 -10 -17 -11 -27
-1 -7 7 -7 11 -2 9 13 -4 65 49 56 58 -3 4 -1 4 6 0 7 -4 17 2 23 14 6 11 16
17 22 14 8 -5 9 -1 4 12 -4 10 -4 16 -1 12 8 -8 60 44 57 57 -2 6 2 5 9 -2 10
-10 9 -15 -1 -27 -7 -9 -17 -13 -23 -9 -6 4 -7 1 -2 -7 6 -9 4 -11 -6 -5 -12
7 -12 6 -1 -6 11 -12 15 -11 23 4 6 9 15 15 20 11 5 -3 8 -2 7 3 -1 4 6 21 16
36 16 24 17 30 5 38 -8 5 -9 9 -2 9 6 0 35 25 65 55 29 30 61 55 71 55 10 0
16 -4 12 -10 -3 -5 -11 -8 -18 -6 -7 1 -9 1 -4 -1 4 -3 4 -10 0 -16 -3 -7 3
-4 15 7 12 10 19 23 15 29 -4 6 0 8 10 4 10 -4 16 -2 14 6 -1 7 6 11 17 9 12
-2 16 1 10 10 -4 7 2 5 13 -5 16 -14 23 -15 29 -6 4 8 3 10 -4 5 -7 -4 -12 -2
-12 3 0 6 9 11 21 11 13 0 18 -4 13 -12 -4 -7 -4 -10 1 -6 4 4 14 3 21 -3 8
-7 14 -6 20 2 4 7 3 9 -4 5 -6 -3 -13 -2 -17 4 -4 6 5 10 20 10 18 0 24 -4 19
-12 -5 -9 -2 -9 9 1 14 11 17 11 18 0 0 -10 2 -11 6 -1 2 6 11 12 19 12 8 0
14 -6 14 -12 0 -7 5 -5 11 5 12 20 15 21 25 5z m-261 -8 c-3 -5 -12 -10 -18
-10 -7 0 -6 4 3 10 19 12 23 12 15 0z m767 -29 c-1 -7 2 -10 8 -6 6 3 8 10 6
14 -3 4 13 8 34 8 22 0 40 -4 40 -9 0 -4 5 -8 11 -8 5 0 7 5 4 10 -10 17 7 11
20 -7 9 -13 14 -13 20 -3 5 9 4 11 -3 6 -7 -4 -12 -3 -12 1 0 5 31 9 70 9 61
0 68 -2 57 -15 -10 -14 -10 -14 4 -4 9 7 20 9 24 5 5 -4 5 -1 1 6 -4 6 -2 12
3 12 6 0 11 -4 11 -10 0 -5 5 -10 11 -10 5 0 7 5 4 10 -3 6 -1 10 4 10 6 0 11
-4 11 -10 0 -5 5 -10 11 -10 5 0 8 4 4 9 -3 6 3 9 14 8 15 -1 17 -4 9 -14 -8
-10 -7 -12 3 -8 12 4 14 -27 14 -190 0 -107 -3 -195 -7 -195 -10 0 -358 350
-358 360 0 5 -8 11 -18 14 -10 4 -19 13 -19 21 0 9 5 14 11 12 6 -3 10 -10 8
-16z m-938 -146 c-7 -16 -24 -21 -24 -6 0 8 7 13 27 20 1 1 0 -6 -3 -14z
m-289 -294 c3 -5 0 -13 -6 -17 -7 -4 -9 -3 -5 4 3 5 0 13 -6 15 -9 4 -10 6 -1
6 6 1 14 -3 18 -8z m1702 -75 c-4 -10 -1 -13 8 -10 9 4 62 -42 144 -125 l131
-132 -148 -148 c-81 -81 -149 -146 -151 -145 -2 2 2 10 9 19 7 8 8 15 3 15 -5
0 -10 7 -10 16 0 15 2 14 14 -1 7 -10 15 -16 18 -14 3 3 -4 15 -15 27 l-21 22
23 1 c22 1 22 1 -2 9 -14 4 -18 9 -10 9 9 1 11 4 5 9 -12 8 -13 32 -2 50 5 6
4 12 -1 12 -5 0 -9 14 -8 30 0 17 5 29 12 26 6 -2 11 2 11 10 0 7 -4 11 -8 8
-4 -2 -10 0 -14 6 -3 5 -2 10 3 10 5 0 12 11 14 24 4 19 1 23 -11 18 -14 -5
-14 -3 -2 11 11 14 11 17 0 18 -8 0 -5 4 6 9 17 7 17 9 3 9 -10 1 -18 6 -18
12 0 5 6 7 13 3 7 -5 6 0 -3 11 -13 17 -13 18 1 13 9 -4 16 -1 16 7 0 8 -3 14
-6 13 -18 -2 -20 3 -9 16 7 8 17 12 21 9 5 -3 3 4 -5 16 -7 12 -15 21 -19 21
-3 0 -6 7 -6 15 0 11 4 12 14 3 11 -8 12 -7 7 6 -3 9 -9 16 -13 16 -4 0 -7 14
-7 30 0 17 4 30 9 30 5 0 7 -7 4 -14z m-1796 -20 c-6 -7 -8 -16 -4 -20 4 -4 8
-124 8 -267 0 -240 -1 -259 -17 -259 -10 0 -18 4 -18 9 0 5 -52 60 -115 122
-63 63 -115 120 -115 127 0 7 -5 10 -12 6 -7 -4 -8 -3 -4 4 4 7 1 12 -6 12 -7
0 -1 11 14 24 15 13 24 28 20 32 -4 5 2 1 14 -9 11 -9 24 -17 29 -17 5 0 0 6
-10 14 -16 12 -17 16 -6 30 10 11 18 13 31 6 28 -15 37 -12 14 4 -18 14 -17
17 36 70 30 31 61 56 67 56 7 0 12 3 11 8 -4 12 54 72 64 66 5 -3 5 -11 -1
-18z m1794 -85 c3 -5 2 -12 -3 -15 -5 -3 -9 1 -9 9 0 17 3 19 12 6z m-1725
-425 c0 -3 -4 -8 -10 -11 -5 -3 -10 -1 -10 4 0 6 5 11 10 11 6 0 10 -2 10 -4z
m1659 -209 c3 -37 4 -281 2 -345 l-1 -23 -194 2 c-169 1 -196 3 -201 17 -3 9
-3 14 0 10 7 -7 44 24 39 33 -2 3 4 6 12 6 11 0 9 -6 -8 -24 -20 -21 -20 -27
0 -20 4 1 6 6 4 11 -2 5 4 6 11 3 9 -3 14 1 13 11 0 9 6 17 14 17 8 0 15 7 15
15 1 8 6 14 13 13 6 -2 9 4 6 12 -4 11 -11 8 -28 -12 -14 -17 -25 -22 -30 -15
-3 6 2 13 13 17 11 3 22 13 25 22 5 11 10 12 19 5 8 -7 18 -6 31 4 11 8 15 14
9 14 -6 0 -13 7 -17 15 -7 19 29 40 40 23 4 -7 3 -8 -4 -4 -7 4 -12 2 -12 -4
0 -6 -5 -8 -12 -4 -7 4 -8 3 -4 -4 8 -13 39 -1 51 18 4 6 11 7 17 4 7 -4 8 -2
4 5 -4 6 0 14 8 17 14 5 14 8 1 21 -17 16 -11 33 11 33 8 0 14 4 14 10 0 12
48 60 61 60 6 0 7 6 3 13 -4 6 -4 9 0 5 10 -8 44 24 38 36 -3 5 0 6 6 2 7 -4
12 -1 12 8 0 35 15 13 19 -27z m-1497 -194 c166 -165 245 -253 197 -218 -9 7
-87 10 -201 9 -109 -1 -188 3 -188 8 0 5 -6 6 -12 2 -10 -6 -10 -4 0 8 10 13
10 17 0 22 -7 3 -3 4 10 2 12 -2 20 0 16 5 -3 5 -12 9 -20 9 -17 0 -19 16 -3
26 8 4 7 9 -2 15 -10 6 -11 9 -1 9 6 0 12 5 12 11 0 5 -4 8 -8 5 -4 -2 -8 6
-8 19 0 13 4 21 8 19 4 -3 8 0 8 5 0 6 -6 11 -12 12 -7 1 -2 5 12 9 l25 8 -25
1 c-20 1 -22 3 -10 11 8 5 10 10 4 10 -12 0 -12 29 0 48 4 6 3 12 -2 12 -5 0
-9 20 -8 45 1 25 4 45 9 45 4 0 7 5 7 11 0 5 -5 7 -12 3 -7 -4 -8 -3 -4 4 4 7
10 12 13 12 3 0 91 -84 195 -187z m1322 48 c3 -4 -3 -16 -13 -25 -14 -13 -20
-14 -23 -4 -8 22 24 48 36 29z m-79 -80 c3 -5 1 -12 -4 -15 -5 -3 -11 1 -15 9
-6 16 9 21 19 6z m-778 -198 c3 4 15 2 26 -4 14 -8 18 -8 13 0 -11 17 10 13
24 -4 11 -13 14 -13 27 2 8 11 11 12 7 3 -5 -10 1 -8 16 5 21 18 23 18 17 2
-5 -13 -3 -16 6 -10 14 9 117 11 112 2 -2 -3 2 -6 10 -6 8 0 12 4 9 9 -9 13 8
9 26 -7 14 -13 17 -13 17 0 0 8 -5 11 -10 8 -6 -3 -7 -1 -3 6 5 7 13 8 24 2
10 -6 23 -6 34 0 11 6 19 5 24 -3 4 -7 3 -8 -4 -4 -7 4 -12 2 -12 -4 0 -6 -5
-8 -12 -4 -7 4 -8 3 -4 -5 6 -9 14 -8 32 4 13 8 24 12 24 8 0 -5 5 -1 10 7 6
9 10 10 10 3 0 -8 11 -11 31 -8 26 3 29 2 18 -11 -10 -12 -14 -12 -22 -2 -6 9
-7 8 -3 -5 4 -12 -28 -51 -119 -142 -68 -69 -128 -125 -132 -125 -15 1 -238
233 -235 244 2 6 0 8 -4 4 -10 -10 -34 11 -34 29 0 10 4 11 19 3 14 -7 22 -7
27 2 5 7 3 8 -6 3 -9 -5 -11 -4 -6 4 6 9 11 9 22 0 8 -6 17 -9 21 -6z m78 7
c3 -5 1 -10 -4 -10 -6 0 -11 5 -11 10 0 6 2 10 4 10 3 0 8 -4 11 -10z m-555
-34 c0 -3 -4 -8 -10 -11 -5 -3 -10 -1 -10 4 0 6 5 11 10 11 6 0 10 -2 10 -4z
m240 0 c0 -3 -4 -8 -10 -11 -5 -3 -10 -1 -10 4 0 6 5 11 10 11 6 0 10 -2 10
-4z m727 -70 c0 -7 -7 -12 -16 -11 -9 2 -18 4 -21 4 -6 2 23 21 31 21 3 0 6
-6 6 -14z m-113 -105 c3 -4 -3 -16 -13 -25 -17 -16 -19 -16 -25 0 -5 12 -2 15
10 10 12 -4 15 -2 10 9 -6 16 9 21 18 6z m-79 -80 c3 -5 1 -12 -4 -15 -5 -3
-11 1 -15 9 -6 16 9 21 19 6z"/>
<path d="M1166 2355 c-3 -9 -11 -13 -17 -9 -8 4 -9 3 -5 -4 4 -7 11 -12 16
-12 9 0 23 31 16 37 -2 2 -6 -3 -10 -12z"/>
<path d="M1121 2316 c-9 -10 -8 -15 3 -19 11 -4 13 -1 9 10 -5 12 -3 14 7 8 9
-5 11 -4 6 3 -9 15 -11 15 -25 -2z"/>
<path d="M1084 2288 c-5 -7 -9 -17 -9 -21 0 -5 -11 -14 -24 -21 -23 -13 -23
-13 -3 -18 13 -4 20 -1 19 6 -1 6 4 10 11 8 8 -1 11 2 8 7 -4 5 2 14 11 20 14
7 15 13 7 21 -9 9 -14 8 -20 -2z"/>
<path d="M455 2020 c3 -5 8 -10 11 -10 2 0 4 5 4 10 0 6 -5 10 -11 10 -5 0 -7
-4 -4 -10z"/>
<path d="M455 1900 c3 -5 8 -10 11 -10 2 0 4 5 4 10 0 6 -5 10 -11 10 -5 0 -7
-4 -4 -10z"/>
<path d="M457 1869 c7 -7 15 -10 18 -7 3 3 -2 9 -12 12 -14 6 -15 5 -6 -5z"/>
<path d="M1410 2130 c-9 -6 -10 -10 -3 -10 6 0 15 5 18 10 8 12 4 12 -15 0z"/>
<path d="M1500 2130 c-9 -6 -10 -10 -3 -10 6 0 15 5 18 10 8 12 4 12 -15 0z"/>
<path d="M856 2056 c-18 -24 -23 -37 -14 -42 7 -5 8 -3 3 6 -6 10 -4 12 8 7
12 -4 14 -2 10 10 -4 11 -2 14 5 9 8 -5 10 -1 5 11 -6 16 -5 17 13 3 17 -14
18 -13 7 1 -7 9 -10 19 -6 22 3 4 4 7 1 7 -3 0 -17 -15 -32 -34z"/>
<path d="M801 2006 c-14 -17 -1 -28 19 -16 11 7 12 12 4 20 -8 8 -14 7 -23 -4z"/>
<path d="M795 1959 c-4 -6 -5 -12 -2 -15 2 -3 7 2 10 11 7 17 1 20 -8 4z"/>
<path d="M686 1875 c-3 -9 -11 -13 -17 -9 -8 4 -9 3 -5 -4 4 -7 11 -12 16 -12
9 0 23 31 16 37 -2 2 -6 -3 -10 -12z"/>
<path d="M641 1836 c-9 -10 -8 -15 3 -19 11 -4 13 -1 9 10 -5 12 -3 14 7 8 9
-5 11 -4 6 3 -9 15 -11 15 -25 -2z"/>
<path d="M980 1666 c0 -83 -3 -105 -15 -110 -13 -5 -15 -56 -15 -376 l0 -370
23 -2 c12 0 28 -1 34 -1 7 1 10 -3 7 -8 -3 -5 2 -9 11 -9 9 0 14 4 11 8 -7 11
31 8 41 -3 5 -4 3 -5 -4 -1 -6 3 -14 3 -16 -1 -3 -5 13 -9 35 -9 25 -1 34 2
26 7 -7 5 -8 9 -3 9 7 0 10 58 9 163 0 101 4 167 10 176 6 8 10 17 9 20 -2 3
2 6 7 6 6 0 19 15 31 34 l20 33 25 -33 c14 -19 59 -89 100 -156 42 -68 82
-123 90 -123 8 0 14 5 14 10 0 22 16 8 42 -35 24 -40 42 -51 71 -46 5 1 6 -3
3 -8 -3 -5 1 -12 10 -15 11 -4 15 -2 11 7 -3 9 5 13 29 12 19 -1 37 -5 42 -10
4 -5 2 -5 -5 -1 -6 3 -14 3 -17 -2 -2 -4 9 -8 25 -7 19 0 29 5 29 15 1 12 3
11 11 -3 11 -18 29 -14 29 6 0 7 -4 6 -10 -3 -6 -9 -10 -10 -10 -3 0 6 5 15
11 19 6 4 7 9 2 13 -21 14 -74 102 -67 113 4 7 3 8 -4 4 -10 -6 -44 44 -41 60
2 15 -25 21 -43 11 -16 -10 -22 -8 -38 13 -10 13 -16 28 -14 32 3 4 0 8 -6 8
-6 0 -9 4 -6 9 3 5 -1 11 -9 15 -8 3 -15 12 -15 20 0 8 -4 16 -8 18 -17 7 -90
132 -87 149 2 12 -1 16 -10 13 -21 -9 -11 27 11 38 18 9 18 9 0 -6 -11 -9 -15
-16 -8 -16 6 0 17 9 25 20 8 11 17 17 22 12 5 -4 5 -1 1 6 -4 7 -11 10 -15 8
-4 -3 -8 1 -8 9 0 10 5 11 17 5 12 -6 16 -4 17 11 1 12 -3 17 -10 13 -7 -3 -4
1 5 9 10 8 14 18 10 22 -4 5 -2 5 5 1 6 -3 10 -19 7 -34 -3 -19 -2 -23 5 -13
5 8 8 24 6 37 -1 13 2 21 7 18 5 -3 8 0 7 7 -5 23 20 59 36 53 8 -4 12 -11 9
-16 -4 -6 -9 -6 -14 2 -5 8 -9 8 -13 -3 -6 -17 17 -17 34 0 7 7 8 13 0 17 -12
8 -3 36 11 36 7 0 6 -5 -1 -14 -9 -11 -8 -15 4 -20 10 -3 14 -2 10 5 -4 6 1
17 11 24 11 8 15 15 10 15 -6 0 -2 6 9 13 14 11 15 16 5 22 -9 6 -11 4 -5 -5
5 -9 4 -11 -3 -6 -11 6 -16 -6 -13 -26 0 -5 -3 -8 -7 -8 -21 0 -19 14 6 42 24
27 27 28 39 12 7 -10 13 -13 13 -7 0 7 7 18 15 26 13 13 13 16 -1 21 -10 4
-13 2 -8 -6 4 -7 3 -8 -4 -4 -8 5 -10 1 -6 -11 5 -15 4 -15 -5 -3 -8 11 -5 20
10 35 17 17 21 18 29 5 6 -9 10 -10 10 -3 0 6 -5 15 -11 18 -7 5 -5 15 6 31
l15 24 -104 0 -105 0 -63 -82 c-35 -46 -101 -136 -148 -200 -47 -64 -90 -119
-95 -121 -6 -3 -11 6 -11 19 0 17 4 23 14 19 13 -5 13 -3 1 11 -19 23 -21 280
-3 311 8 12 14 31 14 43 0 19 -6 20 -85 20 l-85 0 0 -104z"/>
<path d="M496 1702 c-3 -5 1 -15 8 -21 11 -10 14 -9 12 3 -3 21 -13 29 -20 18z"/>
<path d="M1139 1703 c-6 -32 -5 -53 1 -53 4 0 7 14 7 30 0 27 -5 41 -8 23z"/>
<path d="M1640 1700 c20 -13 33 -13 25 0 -3 6 -14 10 -23 10 -15 0 -15 -2 -2
-10z"/>
<path d="M1133 1607 c0 -8 6 -14 14 -14 9 0 10 4 2 14 -6 7 -12 13 -14 13 -1
0 -2 -6 -2 -13z"/>
<path d="M1133 1567 c0 -8 6 -14 14 -14 9 0 10 4 2 14 -6 7 -12 13 -14 13 -1
0 -2 -6 -2 -13z"/>
<path d="M1133 1527 c0 -8 6 -14 14 -14 9 0 10 4 2 14 -6 7 -12 13 -14 13 -1
0 -2 -6 -2 -13z"/>
<path d="M1467 1489 c7 -7 15 -10 18 -7 3 3 -2 9 -12 12 -14 6 -15 5 -6 -5z"/>
<path d="M1130 1440 c0 -5 5 -10 10 -10 6 0 10 5 10 10 0 6 -4 10 -10 10 -5 0
-10 -4 -10 -10z"/>
<path d="M457 1369 c7 -7 15 -10 18 -7 3 3 -2 9 -12 12 -14 6 -15 5 -6 -5z"/>
<path d="M453 1192 c0 -12 5 -22 9 -22 11 0 10 12 -2 30 -7 12 -9 10 -7 -8z"/>
<path d="M1187 1196 c-3 -8 0 -13 6 -12 15 2 22 19 9 24 -5 1 -12 -4 -15 -12z"/>
<path d="M1165 1160 c-4 -6 -12 -7 -18 -4 -7 4 -9 4 -5 -1 4 -4 3 -13 -2 -20
-7 -8 -5 -12 5 -12 8 0 11 5 8 10 -4 6 1 8 11 4 11 -4 15 -3 10 4 -4 6 0 15 7
20 9 6 10 9 2 9 -6 0 -15 -5 -18 -10z"/>
<path d="M1133 1088 c-2 -18 0 -20 7 -8 12 18 13 30 2 30 -4 0 -9 -10 -9 -22z"/>
<path d="M1133 1047 c0 -8 6 -14 14 -14 9 0 10 4 2 14 -6 7 -12 13 -14 13 -1
0 -2 -6 -2 -13z"/>
<path d="M1133 950 c1 -11 5 -20 9 -20 3 0 6 9 5 20 -1 11 -5 20 -9 20 -3 0
-6 -9 -5 -20z"/>
<path d="M1134 895 c0 -13 3 -22 7 -19 8 4 6 30 -2 38 -3 3 -5 -5 -5 -19z"/>
<path d="M1133 825 c0 -8 4 -15 9 -15 4 0 8 4 8 9 0 6 -4 12 -8 15 -5 3 -9 -1
-9 -9z"/>
<path d="M1746 2112 c-3 -5 1 -9 9 -9 8 0 12 4 9 9 -3 4 -7 8 -9 8 -2 0 -6 -4
-9 -8z"/>
<path d="M1891 2117 c2 -1 11 -8 20 -15 13 -10 19 -9 30 5 13 16 12 17 -3 5
-11 -9 -18 -10 -23 -2 -3 5 -11 10 -17 10 -6 0 -9 -1 -7 -3z"/>
<path d="M2183 1235 c0 -8 4 -12 9 -9 5 3 6 10 3 15 -9 13 -12 11 -12 -6z"/>
<path d="M371 1576 c-9 -10 -7 -17 6 -27 16 -12 17 -12 6 2 -10 12 -10 18 -1
27 7 7 9 12 6 12 -3 0 -11 -6 -17 -14z"/>
<path d="M340 1540 c-11 -7 -11 -10 -2 -10 8 0 10 -5 6 -12 -5 -9 -3 -9 9 1 9
7 14 17 11 22 -6 11 -6 11 -24 -1z"/>
<path d="M278 1474 c-11 -19 -23 -32 -28 -29 -4 2 -15 -4 -24 -14 -11 -12 -14
-21 -7 -25 6 -4 18 2 28 13 9 11 20 18 25 15 5 -3 7 0 6 8 -2 7 2 12 8 11 7
-1 10 6 7 20 -3 16 -2 18 5 9 7 -11 10 -11 16 3 3 10 11 13 18 9 7 -4 9 -3 5
1 -17 20 -40 12 -59 -21z m-28 -38 c0 -2 -8 -10 -17 -17 -16 -13 -17 -12 -4 4
13 16 21 21 21 13z"/>
<path d="M175 1380 c-3 -5 -5 -10 -3 -11 33 -8 38 -7 27 7 -14 17 -16 17 -24
4z"/>
<path d="M125 1330 c-6 -10 23 -35 32 -26 3 3 1 6 -6 6 -7 0 -9 5 -6 10 4 6
12 7 18 4 7 -4 8 -3 4 1 -10 12 -36 15 -42 5z"/>
<path d="M2086 851 c-13 -14 -14 -21 -5 -27 7 -4 10 -3 5 4 -3 6 2 15 11 21
10 5 15 12 12 15 -3 4 -14 -2 -23 -13z"/>
<path d="M2036 804 c-9 -8 -13 -20 -10 -25 3 -6 0 -9 -8 -7 -7 2 -15 -1 -17
-7 -6 -16 -35 -34 -45 -28 -5 4 -6 1 -2 -5 8 -13 39 -1 51 18 4 6 11 8 16 5 5
-4 10 -1 10 4 1 6 2 17 3 24 0 6 7 12 15 12 8 0 16 6 19 13 5 17 -13 15 -32
-4z"/>
<path d="M426 793 c-6 -14 -5 -15 5 -6 7 7 10 15 7 18 -3 3 -9 -2 -12 -12z"/>
<path d="M423 755 c0 -8 4 -12 9 -9 5 3 6 10 3 15 -9 13 -12 11 -12 -6z"/>
<path d="M1236 418 c3 -4 11 -5 19 -1 21 7 19 12 -4 10 -11 0 -18 -5 -15 -9z"/>
<path d="M2153 2095 c0 -8 4 -12 9 -9 4 3 8 9 8 15 0 5 -4 9 -8 9 -5 0 -9 -7
-9 -15z"/>
<path d="M2156 1933 c-6 -14 -5 -15 5 -6 7 7 10 15 7 18 -3 3 -9 -2 -12 -12z"/>
<path d="M2150 1906 c0 -2 7 -7 16 -10 8 -3 12 -2 9 4 -6 10 -25 14 -25 6z"/>
<path d="M2150 1839 c0 -5 5 -7 10 -4 6 3 10 8 10 11 0 2 -4 4 -10 4 -5 0 -10
-5 -10 -11z"/>
<path d="M2157 1805 c3 -8 9 -12 14 -9 12 7 11 11 -5 17 -10 4 -13 1 -9 -8z"/>
<path d="M2520 1300 c-13 -8 -12 -10 3 -10 9 0 17 5 17 10 0 12 -1 12 -20 0z"/>
<path d="M2501 1266 c-9 -10 -8 -15 3 -19 11 -4 13 -1 9 10 -5 12 -3 14 7 8 9
-5 11 -4 6 3 -9 15 -11 15 -25 -2z"/>
<path d="M2459 1226 c-16 -20 -16 -22 1 -22 11 0 16 5 12 15 -3 9 -1 12 6 7 7
-4 12 -3 12 3 0 20 -15 18 -31 -3z"/>
<path d="M2246 1022 c-7 -12 12 -38 21 -28 4 5 2 11 -5 13 -6 3 -10 9 -6 14 3
5 3 9 0 9 -3 0 -7 -4 -10 -8z"/>
<path d="M2186 755 c-9 -26 -7 -32 5 -12 6 10 9 21 6 23 -2 3 -7 -2 -11 -11z"/>
<path d="M2175 710 c-3 -5 -1 -10 4 -10 6 0 11 5 11 10 0 6 -2 10 -4 10 -3 0
-8 -4 -11 -10z"/>
<path d="M2190 681 c0 -6 4 -13 10 -16 6 -3 7 1 4 9 -7 18 -14 21 -14 7z"/>
<path d="M2185 590 c-3 -5 -2 -18 4 -27 7 -14 9 -12 8 10 -2 30 -3 31 -12 17z"/>
<path d="M1960 420 c-9 -6 -10 -10 -3 -10 6 0 15 5 18 10 8 12 4 12 -15 0z"/>
<path d="M2040 420 c-9 -6 -10 -10 -3 -10 6 0 15 5 18 10 8 12 4 12 -15 0z"/>
<path d="M2120 420 c-9 -6 -10 -10 -3 -10 6 0 15 5 18 10 8 12 4 12 -15 0z"/>
<path d="M735 389 c-4 -6 -4 -13 -1 -16 3 -4 6 -1 6 6 0 9 5 9 20 1 11 -6 20
-8 20 -6 0 13 -39 26 -45 15z"/>
<path d="M1490 257 c0 -4 -5 -5 -12 -1 -7 4 -8 3 -4 -4 5 -9 13 -9 29 -1 31
16 32 18 8 16 -11 -1 -21 -5 -21 -10z"/>
<path d="M1331 110 c-17 -15 -19 -20 -7 -20 8 0 20 9 26 20 13 25 11 25 -19 0z"/>
</g>
</svg>
